<svg width="1160" height="361" viewBox="0 0 1160 361" fill="none" xmlns="http://www.w3.org/2000/svg">
<rect width="1160" height="361" rx="16" fill="url(#paint0_linear_249_662)"/>
<mask id="mask0_249_662" style="mask-type:alpha" maskUnits="userSpaceOnUse" x="0" y="0" width="1160" height="361">
<rect width="1160" height="361" rx="16" fill="#1C1D4E"/>
</mask>
<g mask="url(#mask0_249_662)">
<path d="M162.488 -462.062C188.86 -237.686 257.386 118.635 664.72 11.2491C1183.08 -125.407 1138.57 -678.45 1476 -379.746M144.434 -386.145C170.665 -161.792 238.905 194.481 645.337 86.944C1162.55 -49.9045 1118.34 -602.897 1454.88 -304.341M114.126 -312.275C140.498 -87.8995 209.024 268.422 616.358 161.035C1134.72 24.3789 1090.21 -528.664 1427.64 -229.96M84.1156 -240.329C110.347 -15.9771 178.586 340.296 585.018 232.759C1102.23 95.9109 1058.02 -457.082 1394.56 -158.526M47.9788 -169.408C74.2098 54.9445 142.45 411.218 548.882 303.681C1066.09 166.832 1021.88 -386.16 1358.43 -87.6039M11.5435 -96.5618C37.9158 127.814 106.442 484.135 513.776 376.749C1032.14 240.092 987.624 -312.95 1325.06 -14.2462M-21.53 -25.1281C4.70103 199.224 72.9409 555.498 479.373 447.961C996.586 311.112 952.374 -241.88 1288.92 56.6757M-54.6038 46.3061C-28.2314 270.682 40.2942 627.003 447.629 519.617C965.99 382.96 921.477 -170.082 1258.91 128.622M-81.848 120.687C-55.617 345.04 12.6229 701.313 419.055 593.776C936.268 456.928 892.055 -96.0648 1228.6 202.491M-109 194.469C-82.6657 418.156 -14.2642 773.385 392.085 666.379C909.194 530.207 864.725 -21.134 1201.38 276.688" stroke="#595BAE"/>
</g>
<defs>
<linearGradient id="paint0_linear_249_662" x1="27" y1="-0.000107569" x2="1272.5" y2="361" gradientUnits="userSpaceOnUse">
<stop stop-color="#535BEB"/>
<stop offset="1" stop-color="#1488CC"/>
</linearGradient>
</defs>
</svg>
